<svg id="Layer_1" enable-background="new 0 0 512 512" height="512" viewBox="0 0 512 512" width="512" xmlns="http://www.w3.org/2000/svg"><g><g><path d="m115.248 249.5-30.122 56.105c-36.126 67.285 12.615 148.776 88.985 148.776h81.884v-204.881z" fill="#ff6f4d"/><path d="m426.865 305.605-30.123-56.105h-140.747v204.881h81.884c76.37 0 125.111-81.491 88.986-148.776z" fill="#ff8f71"/></g><g><g><path d="m271.379 416.048h-17.753l-34.342 22.441v15.893 20l90.876 2.171v-39.713c-10.486-10.356-23.859-17.748-38.781-20.792z" fill="#ffd4bd"/><path d="m255.994 414.5c-20.594 0-39.893 8.217-54.179 22.337v17.544h17.469c10.886-19.438 29.758-33.769 52.095-38.333-4.974-1.015-10.119-1.548-15.385-1.548z" fill="#ffbf9d"/></g><g><path d="m336.038 448.677c-4.709-9.426-15.393-14.499-25.878-11.838-12.133 18.029-32.441 28.84-54.173 28.84-12.718 0-25.68-3.809-36.703-11.299h-17.469v42.645l7.474 7.474h46.705 77.5v-11.82c0-6.038-.682-11.917-1.973-17.565 7.113-6.883 8.941-17.583 4.517-26.437z" fill="#ffce71"/><path d="m201.816 436.837c-10.531-2.669-21.184 2.474-25.864 11.84-4.424 8.854-2.596 19.554 4.517 26.437-1.292 5.649-1.973 11.526-1.973 17.565v11.82h30.795v-11.82c0-13.208 3.376-26.062 9.385-37.205h.001v-.003c.198-.367.404-.727.608-1.091-6.794-4.616-12.751-10.532-17.469-17.543z" fill="#ffb357"/></g></g><g><g><path d="m400.995 249.5h-290c-19.33 0-35 15.67-35 35s15.67 35 35 35h290c19.33 0 35-15.67 35-35s-15.67-35-35-35z" fill="#ffbf9d"/><path d="m255.995 141.513-145 142.987 122.853 142.987h46.295c68.586-11.499 120.852-71.134 120.852-142.987z" fill="#ffd4bd"/><path d="m159.263 277.63h-41.302l-6.967 6.87c0 80.3 65.164 145 145 145 8.228 0 16.293-.696 24.148-2.013-71.141-11.876-124.469-74.991-120.879-149.857z" fill="#ffbf9d"/></g><g fill="#ff8e9e"><ellipse cx="175.995" cy="331.5" rx="29" ry="23"/><ellipse cx="335.995" cy="331.5" rx="29" ry="23"/></g></g><g><path d="m228.578 124.85c-52.548 9.001-97.428 43.444-119.716 91.876-1.766 3.837-2.621 7.912-2.621 11.956 0 7.716 3.127 15.299 9.008 20.819-2.777 11.205-4.253 22.925-4.253 34.999 61.318-.045 114.913-32.145 145-78.304v-53.927z" fill="#ff6f4d"/><path d="m403.129 216.726c-7.782-16.91-18.322-32.08-30.946-45.074-29.811-30.683-71.328-49.151-116.188-49.151-9.315 0-18.474.818-27.418 2.35 2.23 29.854 11.941 57.649 27.418 81.345 30.097 46.175 83.698 78.259 145 78.303 0-12.074-1.476-23.793-4.253-34.998 5.883-5.52 9.008-13.104 9.008-20.822.001-4.205-.855-8.117-2.621-11.953z" fill="#ff8f71"/></g><g><g><path d="m242.792 48.799c-2.151-2.507-6.098-2.287-7.945.451l-2.149 3.185c-7.419 10.997-17.86 11.559-26.083 13.016-6.391-10.375-17.844-17.313-30.898-17.313-24.935 0-45.221 20.286-45.221 45.221 0 31.1 25.302 56.401 56.401 56.401h69.099v-92.76c-5.605 0-8.895-3.179-13.204-8.201z" fill="#ffce71"/><path d="m305.376 65.451c-8.31-1.472-18.66-2.013-26.083-13.016l-2.147-3.183c-1.848-2.739-5.797-2.957-7.948-.448-4.27 4.981-7.592 8.196-13.203 8.196-12.799 12.544-20.012 28.458-20.012 46.38 0 16.756 8.731 34.104 20.012 46.38h69.099c31.1 0 56.401-25.302 56.401-56.401 0-42.759-55.346-61.631-76.119-27.908z" fill="#fce3a0"/></g><circle cx="255.995" cy="103.38" fill="#55dafe" r="20"/></g><g><path d="m277.387 302.986c-3.122-2.722-7.86-2.397-10.582.726-5.727 6.571-15.899 6.564-21.621 0-2.721-3.123-7.46-3.448-10.582-.726-3.123 2.722-3.448 7.459-.726 10.582 11.705 13.43 32.543 13.416 44.236 0 2.723-3.123 2.398-7.86-.725-10.582z"/><path d="m211.43 295.485c-3.124-2.722-7.861-2.397-10.582.726-3.869 4.439-10.738 4.436-14.604 0-2.721-3.123-7.459-3.448-10.582-.727s-3.448 7.458-.727 10.582c9.846 11.299 27.382 11.289 37.22 0 2.723-3.122 2.398-7.859-.725-10.581z"/><path d="m336.327 295.485c-3.123-2.722-7.86-2.396-10.582.726-3.877 4.448-10.746 4.426-14.604 0-2.722-3.123-7.459-3.448-10.582-.726-3.123 2.721-3.448 7.459-.726 10.582 9.847 11.299 27.381 11.288 37.22 0 2.722-3.123 2.397-7.86-.726-10.582z"/><path d="m436.403 307.971c4.476-6.73 7.092-14.8 7.092-23.471 0-20.254-14.246-37.234-33.242-41.472 4.001-9.224 4.104-19.847-.311-29.438-11.918-25.898-30.239-48.32-53.228-65.314 18.975-10.969 31.781-31.469 31.781-54.918 0-28.795-23.426-52.221-52.221-52.221-13.643 0-25.824 6.353-33.762 16.248-12.686 0-20.816-9.548-20.816-19.999 0-13.627 17.731-19.677 23.396-9.186 4.85 8.981 17.818 1.425 13.416-6.724l-.001-.003c-8.556-15.843-28.473-17.536-41.383-6.564-4.396-9.026-12.134-14.909-21.129-14.909s-16.733 5.883-21.129 14.909c-12.89-10.953-32.813-9.304-41.383 6.564l-.001.003c-4.381 8.112 8.552 15.732 13.416 6.724 5.676-10.51 23.396-4.406 23.396 9.186 0 10.34-8.007 19.999-20.816 19.999-7.938-9.895-20.119-16.248-33.762-16.248-28.795 0-52.221 23.426-52.221 52.221 0 23.445 12.802 43.943 31.773 54.913-9.022 6.662-17.38 14.185-24.898 22.47-2.784 3.067-2.553 7.811.514 10.594 3.07 2.785 7.813 2.551 10.594-.514 8.533-9.403 18.238-17.754 28.846-24.82.488-.325.92-.702 1.306-1.112 4.893 1.214 10.004 1.87 15.266 1.87h138.197c5.264 0 10.375-.656 15.269-1.87.384.409.814.784 1.301 1.109 23.854 15.919 42.752 38.002 54.653 63.863 3.878 8.429 1.734 18.126-4.706 24.169-1.979 1.857-2.801 4.639-2.148 7.273 2.065 8.331 3.335 16.88 3.811 25.505-63.879-2.965-120.205-41.924-144.893-100.935-1.599-3.821-5.992-5.623-9.813-4.024s-5.623 5.992-4.024 9.813c3.55 8.486 7.74 16.628 12.499 24.391-29.033 41.734-77.271 68.251-128.323 70.733.478-8.62 1.748-17.162 3.81-25.483.653-2.634-.168-5.416-2.147-7.273-6.393-5.999-8.61-15.688-4.706-24.17 2.555-5.553 5.469-11.003 8.66-16.199 2.167-3.53 1.063-8.148-2.466-10.316-3.53-2.168-8.148-1.063-10.316 2.466-3.502 5.703-6.7 11.684-9.504 17.778-4.363 9.48-4.358 20.109-.311 29.438-18.995 4.238-33.242 21.218-33.242 41.472 0 8.673 2.617 16.744 7.095 23.476-31.883 68.824 15.319 148.254 90.607 153.614.514 5.692 2.63 11.135 6.174 15.701-.914 5.058-1.375 10.218-1.375 15.39v11.82c0 4.142 3.358 7.5 7.5 7.5h155c4.143 0 7.5-3.358 7.5-7.5v-11.82c0-5.17-.462-10.331-1.376-15.39 3.542-4.563 5.658-10.004 6.173-15.693 8.179-.574 16.196-2.035 23.92-4.375 3.965-1.201 6.205-5.388 5.004-9.352-1.2-3.965-5.387-6.205-9.352-5.004-7.072 2.142-14.442 3.419-21.972 3.843-5.141-11.858-17.599-19.347-30.836-17.9-.701-.631-1.412-1.25-2.134-1.858 44.289-16.98 78.709-54.042 92.049-99.989 8.357-.287 16.108-2.993 22.572-7.447 16.961 42.949-1.186 88.611-34.767 111.445-3.426 2.329-4.314 6.994-1.985 10.419 1.451 2.134 3.809 3.283 6.209 3.283 1.452 0 2.919-.42 4.21-1.298 43.397-29.507 60.48-86.363 37.69-135.393zm-180.408-292.971c4.721 0 10 7.484 10 17.5s-5.279 17.5-10 17.5-10-7.484-10-17.5 5.279-17.5 10-17.5zm-69.098 126.76c-26.688 0-48.401-21.713-48.401-48.401 0-20.524 16.697-37.221 37.221-37.221 15.592 0 28.277 12.685 28.277 28.277 0 14.975-17.976 21.16-27.877 11.26-2.929-2.93-7.678-2.929-10.606 0-2.929 2.929-2.929 7.678 0 10.606 19.45 19.45 53.483 6.331 53.483-21.866 0-4.417-.668-8.679-1.904-12.696 9.224-1.823 17.158-7.276 22.24-14.809 4.392 5.052 10.204 8.09 16.665 8.09s12.273-3.038 16.666-8.091c5.082 7.533 13.016 12.987 22.24 14.809-1.235 4.017-1.904 8.279-1.904 12.696 0 28.179 34.022 41.327 53.483 21.866 2.929-2.929 2.929-7.677 0-10.606-2.928-2.929-7.677-2.929-10.606 0-9.881 9.88-27.877 3.749-27.877-11.26 0-15.592 12.685-28.277 28.277-28.277 20.524 0 37.221 16.697 37.221 37.221 0 26.688-21.713 48.401-48.401 48.401h-138.197zm-80.999 115.721c-1.588 8.885-2.403 17.934-2.403 27.019 0 9.218.823 18.246 2.397 27.018-12.733-2.4-22.397-13.598-22.397-27.018 0-13.422 9.668-24.621 22.403-27.019zm62.698 189.232c-63.565-3.65-104.615-68.58-81.64-127.189 6.462 4.449 14.208 7.152 22.56 7.439 13.339 45.943 47.755 83.003 92.039 99.985-.727.611-1.443 1.235-2.149 1.87-12.936-1.35-25.533 5.725-30.81 17.895zm17.088 23.011c-10.139-9.81-2.434-27.247 11.787-26.039 12.211 16.513 30.725 27.011 51.016 29.101v24.214h-31.697v-4.32c0-2.555.137-5.127.407-7.647.442-4.118-2.539-7.815-6.657-8.257-4.115-.444-7.815 2.539-8.257 6.657-.327 3.049-.493 6.16-.493 9.247v4.32h-15.795v-4.32c0-5.367.601-10.715 1.785-15.894.585-2.558-.21-5.237-2.096-7.062zm140.622 0c-1.886 1.825-2.681 4.503-2.096 7.062 1.185 5.182 1.785 10.529 1.785 15.894v4.32h-15.795v-4.32c0-3.084-.166-6.195-.494-9.247-.442-4.119-4.146-7.1-8.257-6.657-4.119.442-7.099 4.139-6.657 8.257.271 2.523.408 5.096.408 7.647v4.321h-31.713v-24.213c20.292-2.091 38.808-12.589 51.019-29.101 14.233-1.211 21.944 16.223 11.8 26.037zm-26.287-31.923c-10.913 12.855-26.938 20.378-44.031 20.378-17.092 0-33.117-7.523-44.03-20.38 2.332-1.906 4.794-3.664 7.369-5.267 11.751 2.911 24.03 4.467 36.668 4.467 12.639 0 24.919-1.556 36.67-4.468 2.564 1.601 5.021 3.36 7.354 5.27zm-44.024-15.801c-73.366 0-133.493-57.758-137.305-130.192 56.303-2.451 106.115-30.655 137.316-72.53 31.398 42.18 81.332 70.148 137.295 72.546-3.821 72.425-63.945 130.176-137.306 130.176zm152.5-137.502c0-9.083-.816-18.131-2.404-27.017 12.736 2.397 22.404 13.597 22.404 27.019 0 13.42-9.665 24.618-22.398 27.018 1.575-8.772 2.398-17.802 2.398-27.02z"/><path d="m255.995 75.88c-15.164 0-27.5 12.336-27.5 27.5s12.336 27.5 27.5 27.5 27.5-12.336 27.5-27.5-12.336-27.5-27.5-27.5zm0 40c-6.893 0-12.5-5.607-12.5-12.5s5.607-12.5 12.5-12.5 12.5 5.607 12.5 12.5-5.607 12.5-12.5 12.5z"/></g></g></svg>